# xmcd
#
# Track frame offsets:
# 150
# 10936
# 53654
# 66911
# 85899
# 103070
#
# Disc length: 1570 seconds
#
#
# Revision: 0
# Processed by: cddbd v1.5.2PL0 Copyright (c) Steve Scherf et al.
# Submitted via: FreeRIP 2.951 
#
DISCID=46062006
DTITLE=Lasse Liten Blues Band - Lasse Liten Blues Band
DYEAR=1998
DGENRE=Blues
TTITLE0=Jag vill ha mer
TTITLE1=Jävla måndag
TTITLE2=Bara en dag till
TTITLE3=Hur blå kan en människa bli
TTITLE4=Mod å blod å Voodoo
TTITLE5=Två blå ögon
EXTD=00550
EXTT0=
EXTT1=
EXTT2=
EXTT3=
EXTT4=
EXTT5=
PLAYORDER=
